<?xml version="1.0" standalone="no"?>
<!DOCTYPE svg PUBLIC "-//W3C//DTD SVG 20010904//EN"
 "http://www.w3.org/TR/2001/REC-SVG-20010904/DTD/svg10.dtd">
<svg version="1.0" xmlns="http://www.w3.org/2000/svg"
 width="710.000000pt" height="768.000000pt" viewBox="0 0 710.000000 768.000000"
 preserveAspectRatio="xMidYMid meet">
<metadata>
Created by potrace 1.16, written by Peter Selinger 2001-2019
</metadata>
<g transform="translate(0.000000,768.000000) scale(0.100000,-0.100000)"
fill="#000000" stroke="none">
<path d="M0 6275 l0 -1405 82 0 83 0 -85 -85 c-46 -46 -81 -88 -77 -92 4 -4
45 30 90 75 45 45 86 82 90 82 4 0 7 -36 7 -80 l0 -81 88 3 87 3 3 93 3 92
-81 0 c-44 0 -80 3 -80 7 0 4 36 44 81 89 78 79 81 82 67 107 -12 23 -15 24
-32 11 -19 -14 -19 -14 2 -14 12 0 22 -3 22 -8 0 -4 -36 -43 -81 -87 l-80 -80
3 86 c3 84 2 87 -22 98 -35 15 -60 61 -60 109 0 81 76 143 156 127 45 -8 104
-63 104 -96 0 -16 7 -8 26 29 32 65 109 135 192 174 89 43 202 50 295 19 61
-21 67 -21 90 -6 18 12 43 15 93 13 l69 -3 3 -47 c2 -37 -4 -61 -33 -119 -39
-76 -40 -91 -11 -164 25 -65 21 -210 -8 -289 -28 -79 -76 -160 -127 -215 l-37
-41 54 0 54 0 0 -378 0 -378 36 -35 c19 -18 49 -54 65 -78 l29 -44 0 -417 c0
-229 -3 -420 -7 -424 -5 -4 -34 21 -65 56 l-57 63 -1 -1110 0 -1110 24 -51
c31 -67 83 -94 177 -94 105 0 186 50 245 149 10 17 22 31 27 31 14 0 1 -269
-15 -310 -53 -140 -194 -263 -373 -327 -62 -22 -184 -43 -249 -43 -208 0 -420
146 -486 333 -19 55 -20 85 -20 1149 0 601 -3 1306 -7 1566 l-6 472 -52 24
c-60 27 -98 72 -126 148 -10 29 -19 54 -19 55 0 2 47 3 105 3 l105 0 0 370 0
370 -180 0 -180 0 0 -2285 0 -2285 3550 0 3550 0 0 2285 0 2285 -180 0 -180 0
0 -370 0 -370 105 0 c58 0 105 -1 105 -3 0 -1 -9 -26 -19 -55 -28 -76 -66
-121 -126 -148 l-52 -24 -6 -472 c-4 -260 -7 -965 -7 -1566 0 -1064 -1 -1094
-20 -1149 -66 -187 -278 -333 -486 -333 -271 0 -543 162 -622 370 -16 41 -29
310 -15 310 5 0 17 -14 27 -31 59 -99 140 -149 245 -149 94 0 146 27 177 94
l24 51 0 1110 -1 1110 -57 -63 c-31 -35 -60 -60 -65 -56 -10 11 -9 828 2 856
5 13 34 51 65 85 l56 61 0 376 0 376 53 0 54 0 -36 38 c-48 51 -98 137 -127
218 -29 79 -33 224 -8 289 29 73 28 88 -11 164 -29 58 -35 82 -33 119 l3 47
69 3 c50 2 75 -1 93 -13 23 -15 29 -15 90 6 93 30 206 24 295 -18 81 -39 160
-110 192 -175 19 -37 26 -45 26 -29 0 33 59 88 104 96 80 16 156 -46 156 -127
0 -48 -25 -94 -60 -109 -24 -11 -25 -14 -22 -95 2 -46 1 -84 -1 -84 -7 0 -151
150 -155 161 -2 5 7 9 19 9 22 0 22 0 3 14 -17 13 -20 12 -32 -11 -14 -25 -11
-28 67 -107 45 -45 81 -85 81 -89 0 -4 -36 -7 -80 -7 l-80 0 0 -95 0 -95 90 0
90 0 0 80 c0 44 4 80 8 80 5 0 46 -38 91 -85 46 -47 85 -85 87 -85 18 0 -9 38
-78 107 l-83 83 83 0 82 0 0 1405 0 1405 -1672 0 -1672 0 28 -29 27 -28 -4
-304 c-3 -167 -10 -331 -16 -364 -6 -33 -28 -160 -49 -282 l-38 -221 95 -6
c53 -3 157 -9 232 -12 l136 -6 38 88 c50 117 53 198 11 359 -40 157 -35 204
38 348 76 149 88 213 59 328 -11 46 -19 85 -18 87 9 11 71 -36 116 -87 l52
-60 40 45 c21 24 47 44 57 44 20 0 40 -45 40 -91 0 -34 0 -35 74 -9 68 24 136
33 136 18 0 -6 -22 -34 -49 -64 -81 -88 -103 -145 -113 -288 -9 -137 -22 -197
-52 -241 -11 -16 -62 -75 -113 -130 -51 -54 -102 -118 -112 -141 -11 -23 -26
-82 -32 -130 -7 -49 -18 -96 -26 -105 -7 -8 -13 -22 -13 -30 0 -24 -47 -86
-83 -108 -30 -18 -50 -21 -153 -21 -66 0 -136 4 -156 9 -21 5 -38 5 -38 1 0
-23 295 -28 339 -6 39 21 91 82 98 117 3 16 10 32 15 35 11 7 91 -10 190 -43
l77 -24 43 29 c82 57 91 73 98 168 7 113 10 115 185 143 75 12 154 28 176 35
45 16 37 22 124 -102 31 -46 54 -87 49 -91 -5 -5 -114 -82 -242 -172 -169
-118 -232 -167 -228 -179 3 -8 13 -37 22 -64 l17 -49 91 6 c123 7 167 25 276
113 167 134 175 137 380 138 154 1 156 1 220 33 36 17 84 48 107 67 22 20 44
36 48 36 15 0 -3 -97 -29 -152 -14 -31 -26 -59 -26 -61 0 -2 19 -7 41 -11 92
-15 103 -51 31 -99 l-42 -29 55 -61 c50 -55 75 -100 63 -112 -2 -3 -29 5 -59
17 -39 15 -78 21 -144 22 -85 1 -96 -2 -200 -44 -100 -41 -117 -45 -190 -44
-67 0 -100 7 -202 42 -147 51 -193 53 -318 14 l-90 -29 -3 -141 -3 -142 96 0
95 0 0 80 c0 58 3 80 13 80 7 0 51 -16 97 -36 47 -20 106 -44 131 -54 l45 -18
57 53 c45 43 65 55 102 61 88 13 204 -36 229 -98 10 -23 27 -35 71 -53 32 -13
70 -35 84 -49 29 -28 54 -83 41 -91 -11 -7 -4701 -7 -4708 -1 -10 11 10 59 36
83 15 14 54 39 87 54 43 21 65 38 79 63 33 61 156 109 237 91 20 -5 56 -29 90
-61 l56 -54 134 56 c74 31 140 58 147 61 9 4 12 -16 12 -81 l0 -86 95 0 95 0
0 29 c0 26 3 29 44 33 55 7 101 39 115 81 6 17 15 67 20 110 8 64 16 90 51
148 24 38 40 73 36 76 -8 8 -6 10 -50 -60 -33 -51 -39 -69 -47 -154 -14 -140
-44 -186 -122 -187 l-42 -1 -3 102 -3 103 -96 30 c-133 41 -171 39 -339 -16
-176 -59 -218 -58 -374 7 -99 41 -110 44 -195 43 -63 -1 -108 -7 -150 -22 -33
-11 -61 -19 -63 -18 -10 11 27 69 75 118 l56 56 -29 15 c-40 21 -78 63 -69 77
10 16 69 40 99 40 l25 0 -30 67 c-28 63 -49 153 -35 153 3 0 34 -21 68 -46
111 -82 131 -88 313 -89 150 0 163 -2 215 -26 30 -14 96 -58 145 -99 124 -100
172 -121 293 -127 l97 -5 16 48 c9 27 19 56 22 64 5 11 -13 29 -65 65 -40 27
-150 104 -245 171 l-172 122 69 98 c38 54 66 102 63 107 -3 5 8 2 23 -6 34
-17 91 -30 234 -53 144 -23 150 -27 150 -114 0 -104 15 -131 112 -197 l38 -25
70 26 c86 31 97 32 105 5 15 -46 -3 -86 -54 -118 -26 -17 -56 -31 -65 -31 -27
0 -128 -108 -164 -176 -33 -64 -40 -94 -21 -94 5 0 7 4 4 10 -21 35 119 229
171 236 24 4 123 74 134 95 7 11 10 41 8 65 -3 43 -3 43 34 49 21 4 38 10 38
13 -2 51 -33 199 -49 230 -11 22 -64 87 -117 143 -133 142 -145 169 -154 340
-7 125 -10 143 -38 201 -17 35 -54 89 -82 120 -49 55 -49 56 -25 62 14 4 56
-4 102 -19 84 -26 93 -24 93 28 0 39 17 67 40 67 10 0 35 -19 54 -42 l37 -43
52 57 c46 50 117 100 117 82 0 -3 -7 -34 -16 -68 -10 -38 -15 -89 -12 -137 3
-68 8 -86 60 -190 32 -63 62 -137 68 -165 11 -52 10 -64 -46 -309 -13 -57 -13
-80 -4 -123 12 -55 64 -190 79 -205 8 -8 461 9 469 18 3 2 -3 51 -13 107 -9
57 -21 128 -25 158 -5 30 -20 123 -34 205 -24 136 -26 176 -26 424 l0 275 27
28 27 28 -1677 0 -1677 0 0 -1405z m2733 -971 c34 -6 37 -9 37 -40 0 -37 -10
-43 -30 -19 -14 17 -53 20 -81 5 -71 -38 -59 -197 16 -216 27 -7 85 12 85 27
0 5 5 9 10 9 6 0 10 -13 10 -28 0 -23 -7 -32 -35 -45 -45 -22 -70 -21 -121 2
-49 22 -84 84 -84 148 0 54 37 121 80 144 37 20 54 22 113 13z m465 -21 c43
-32 65 -69 69 -120 7 -63 -14 -112 -63 -149 -32 -24 -47 -29 -95 -29 -65 1
-98 19 -136 75 -39 56 -29 154 19 200 55 53 152 64 206 23z m-1124 -78 c37
-52 72 -97 77 -101 7 -4 9 29 7 95 l-3 101 29 0 c22 0 27 -4 22 -16 -3 -9 -6
-78 -6 -155 l0 -139 -27 0 c-24 0 -40 17 -108 113 l-80 112 -3 -40 c-2 -21 -2
-72 0 -112 l3 -73 -27 0 -28 0 0 155 0 155 38 0 c38 0 41 -3 106 -95z m403
-60 l61 -155 -37 0 c-34 0 -38 3 -51 43 l-15 42 -62 3 -63 3 -12 -46 c-11 -40
-15 -45 -41 -45 -16 0 -27 4 -25 9 2 6 28 75 58 155 l55 146 36 0 36 0 60
-155z m423 0 l0 -155 -37 0 -38 0 0 155 0 155 38 0 37 0 0 -155z m572 53 c72
-102 73 -103 76 -69 2 19 2 65 0 103 l-3 68 28 0 27 0 0 -155 0 -155 -32 0
c-30 1 -39 10 -108 106 -41 58 -79 108 -83 111 -5 3 -7 -45 -5 -106 l3 -111
-27 0 -28 0 0 155 0 155 39 0 c38 0 41 -3 113 -102z m384 -20 c25 -68 53 -138
60 -155 l13 -33 -38 0 c-37 0 -39 2 -51 45 l-13 45 -62 0 -63 0 -13 -45 c-12
-40 -17 -45 -42 -45 -19 0 -27 4 -24 13 67 173 107 278 107 287 0 5 18 10 39
10 l39 0 48 -122z m174 -8 l0 -130 65 0 c63 0 65 -1 65 -25 l0 -25 -102 0
-103 0 3 155 3 155 34 0 35 0 0 -130z m503 116 c107 -44 125 -186 34 -260 -35
-28 -45 -30 -130 -34 l-92 -4 0 156 0 156 78 0 c43 0 92 -6 110 -14z m347 -8
c0 -22 -4 -23 -67 -23 l-68 0 -3 -37 -3 -38 60 0 c60 0 61 0 61 -28 0 -27 -1
-27 -57 -27 l-58 0 0 -45 0 -45 73 0 c67 0 73 -1 70 -20 -3 -18 -11 -20 -108
-23 l-105 -3 0 156 0 155 103 0 c99 0 102 -1 102 -22z m122 -108 l-3 -130 70
0 c69 0 71 -1 71 -25 l0 -25 -105 0 -105 0 0 155 0 155 38 0 37 0 -3 -130z
m-1452 -1604 l0 -1244 -48 -35 c-66 -49 -176 -102 -248 -121 -79 -20 -209 -20
-287 0 -71 18 -183 72 -248 120 l-45 33 -50 -35 c-160 -115 -359 -163 -519
-123 -69 16 -181 69 -254 118 l-61 42 0 1244 0 1245 880 0 880 0 0 -1244z
m-2000 756 c53 -26 80 -87 80 -184 l0 -78 -155 0 -155 0 0 83 c0 96 17 140 69
174 42 28 111 30 161 5z m2494 -104 c3 -18 7 -51 10 -73 3 -22 25 -78 49 -125
51 -98 63 -145 76 -287 19 -205 83 -273 258 -273 34 0 92 7 130 16 120 28 279
4 361 -56 84 -60 126 -166 84 -208 -38 -38 -42 -58 -42 -214 0 -111 5 -171 16
-213 30 -112 34 -102 -36 -110 -41 -5 -66 -3 -73 4 -7 7 -51 11 -109 11 -85 0
-101 3 -118 20 l-20 20 -38 -21 c-33 -19 -42 -20 -81 -9 -28 7 -45 18 -48 31
-7 25 -15 24 -50 -5 -46 -38 -65 -40 -109 -6 -48 36 -55 37 -82 6 -22 -27 -79
-40 -147 -34 -45 3 -41 -7 -65 173 -7 50 -24 119 -37 154 -41 110 -73 260 -80
376 -4 90 -2 131 17 227 21 114 22 170 4 286 l-6 44 -77 -4 -76 -3 -3 33 c-3
30 0 34 42 52 29 12 54 33 71 59 26 38 50 53 108 67 31 7 47 30 47 68 0 37 18
32 24 -6z m1618 -129 l118 -44 0 -36 0 -36 -155 -60 -155 -61 0 37 c0 34 3 38
43 51 l42 15 3 62 3 63 -46 12 c-41 11 -45 15 -45 44 l0 32 38 -18 c20 -10 90
-37 154 -61z m-4032 -94 c0 -38 -3 -45 -20 -45 -10 0 -31 -5 -45 -12 -23 -10
-25 -17 -25 -70 0 -55 2 -59 28 -69 15 -6 35 -11 45 -12 12 -1 17 -10 17 -33
l0 -31 -155 60 -155 61 0 35 0 36 146 55 c80 30 148 58 151 63 9 15 13 5 13
-38z m4150 -205 l0 -35 -130 3 -130 4 0 -71 c0 -69 -1 -71 -25 -71 l-25 0 0
103 0 102 155 0 155 0 0 -35z m-4234 -86 c55 -26 77 -74 82 -176 l4 -88 -157
0 -157 0 4 93 c2 78 7 97 27 126 42 58 127 78 197 45z m4234 -169 c0 -123 0
-125 -23 -125 -20 0 -22 4 -19 46 l4 45 -136 -3 -136 -3 0 38 0 37 136 0 136
0 -4 45 c-3 41 -1 45 19 45 23 0 23 -2 23 -125z m-4150 -192 l0 -38 -155 0
-155 0 0 38 0 37 155 0 155 0 0 -37z m4150 -13 l0 -35 -155 0 -155 0 0 35 0
35 155 0 155 0 0 -35z m-4187 -90 c39 -31 52 -82 37 -146 -13 -52 -15 -54 -46
-54 l-34 0 20 33 c34 56 23 117 -22 117 -13 0 -27 -19 -48 -64 -33 -75 -65
-101 -109 -91 -67 14 -98 93 -70 174 9 27 16 31 46 31 l34 0 -20 -26 c-24 -31
-28 -86 -6 -104 27 -23 48 -7 72 55 13 33 32 68 44 78 28 23 70 22 102 -3z
m4187 -101 c0 -87 -1 -92 -29 -120 -33 -32 -67 -37 -110 -15 -34 18 -51 54
-51 111 l0 45 -60 0 -60 0 0 38 0 37 155 -3 155 -3 0 -90z m-4150 -177 c0 -37
-2 -39 -60 -67 -53 -25 -60 -32 -60 -58 l0 -29 60 4 60 3 0 -35 0 -35 -155 0
-155 0 0 98 c0 91 2 100 25 122 35 36 86 34 118 -5 14 -16 29 -30 34 -30 4 1
33 16 63 35 30 18 58 34 63 34 4 1 7 -16 7 -37z m4150 -52 l0 -35 -130 3 -130
4 0 -71 c0 -60 -3 -71 -17 -71 -10 0 -13 -3 -7 -8 12 -11 255 -105 272 -105 9
0 12 -13 10 -41 l-3 -40 -150 -58 c-82 -32 -151 -58 -152 -58 -2 0 -3 17 -3
38 0 36 2 38 45 50 l46 12 -3 62 -3 61 -42 16 -43 15 0 131 0 130 155 0 155 0
0 -35z m-4150 -317 l0 -108 -155 3 -155 3 0 99 c0 97 1 100 23 100 21 0 22 -3
19 -65 l-4 -65 48 0 47 0 -6 55 c-6 58 -7 56 40 55 4 0 5 -25 4 -55 l-2 -55
45 0 46 0 0 70 c0 68 1 70 25 70 l25 0 0 -107z m-2 -271 l-3 -34 -152 -53
-153 -53 0 38 0 37 110 33 c61 19 110 37 110 40 0 4 -49 22 -110 40 -104 32
-110 35 -110 60 l0 26 155 -50 156 -50 -3 -34z m4152 36 c0 -36 -4 -40 -102
-110 l-102 -73 102 -3 c101 -3 102 -3 102 -27 l0 -25 -155 0 -155 0 0 33 c1
29 9 38 83 89 45 32 96 69 112 83 l30 25 -113 -2 -112 -3 0 25 0 25 155 0 155
0 0 -37z m-4150 -245 l0 -38 -155 3 -155 3 0 34 0 35 155 0 155 0 0 -37z
m4088 -65 c91 -55 95 -196 7 -263 -82 -63 -197 -36 -244 58 -73 148 93 292
237 205z m-4227 -38 l139 0 0 -27 c-1 -24 -17 -39 -106 -103 -58 -41 -108 -79
-111 -83 -3 -5 45 -7 106 -5 l111 3 0 -27 0 -28 -155 0 -155 0 0 39 c0 38 3
41 103 113 101 72 102 73 68 76 -19 2 -65 2 -103 0 l-68 -3 0 29 c0 22 4 27
16 22 9 -3 78 -6 155 -6z m90 -350 c35 -15 54 -53 54 -110 0 -51 -18 -94 -44
-107 -9 -4 -73 -10 -144 -13 l-127 -5 0 35 0 35 82 -3 c119 -4 170 7 182 39
13 39 0 75 -33 88 -18 8 -67 11 -130 9 l-101 -3 0 25 0 25 117 -2 c64 -1 129
-7 144 -13z m1947 -57 c-43 -68 -44 -70 -26 -55 27 21 255 -13 357 -54 39 -15
41 -18 26 -33 -12 -12 -34 -16 -83 -15 -37 0 -53 -1 -37 -4 41 -5 55 -19 55
-53 0 -22 -6 -30 -26 -35 -31 -8 -153 2 -188 16 -14 5 -28 5 -31 1 -16 -27
-371 -50 -445 -29 -24 7 -25 10 -25 95 l0 87 55 13 c30 7 88 14 127 16 40 1
73 5 73 9 0 19 175 96 188 83 2 -2 -7 -20 -20 -42z m709 -113 c-5 -86 -10
-100 -37 -100 -19 0 -196 61 -226 78 -11 6 19 24 112 65 155 67 157 67 151
-43z m-100 -659 c113 -52 131 -211 31 -282 -48 -35 -133 -38 -177 -7 -50 34
-72 69 -78 122 -9 80 39 153 116 176 41 13 63 11 108 -9z m-1024 -53 c93 -50
111 -118 45 -173 -35 -30 -68 -31 -126 -5 l-42 19 -20 -39 c-11 -22 -20 -46
-20 -55 0 -19 -2 -19 -42 1 l-33 15 62 130 c35 72 63 137 63 144 0 18 26 9
113 -37z m713 -47 c-3 -5 21 -67 54 -137 33 -71 60 -135 60 -141 0 -7 -11 -15
-25 -19 -23 -6 -52 8 -257 123 -11 6 6 -36 49 -119 21 -40 39 -76 41 -79 2 -4
-11 -12 -28 -17 -26 -9 -30 -9 -30 6 -1 9 -29 74 -63 144 l-62 127 34 16 33
16 107 -60 c58 -33 107 -57 109 -52 2 5 -15 46 -38 91 -22 46 -39 84 -38 85
27 20 63 31 54 16z m-503 -51 c4 -4 -13 -50 -38 -104 -56 -121 -58 -148 -10
-170 51 -25 70 -9 121 100 24 51 44 98 44 104 0 13 16 13 39 0 17 -8 14 -18
-31 -112 -54 -112 -71 -136 -106 -149 -36 -14 -101 8 -140 47 -30 30 -34 39
-29 73 2 21 23 78 46 126 22 48 41 94 41 101 0 11 5 11 28 2 15 -7 30 -15 35
-18z"/>
<path d="M3055 5238 c-45 -39 -50 -133 -10 -178 38 -42 113 -31 140 21 8 15
15 49 15 74 0 87 -84 135 -145 83z"/>
<path d="M4410 5144 l0 -107 47 6 c144 16 133 207 -12 207 l-35 0 0 -106z"/>
<path d="M2641 3448 c-1 -10 8 -40 19 -67 18 -46 18 -54 5 -97 -14 -47 -49
-94 -70 -94 -17 0 -62 51 -79 90 -8 19 -15 28 -16 19 0 -20 56 -109 70 -109 5
0 10 -10 10 -21 0 -12 15 -40 33 -63 45 -56 47 -60 62 -124 14 -58 32 -291 22
-282 -3 3 -28 34 -57 69 -28 36 -60 74 -71 85 -10 12 -34 38 -52 58 -28 33
-42 39 -107 53 -89 18 -90 18 -90 4 0 -6 -17 -31 -37 -56 l-38 -46 0 -108 0
-108 23 30 c13 16 38 37 55 46 18 9 38 24 45 34 7 11 22 19 32 19 11 0 25 7
32 16 70 87 96 87 170 2 30 -35 63 -75 73 -90 32 -51 38 -35 31 85 -4 61 -10
146 -12 186 l-4 75 47 43 c25 24 52 43 60 43 8 0 28 -23 45 -50 25 -40 39 -52
69 -60 39 -11 89 -67 89 -100 0 -12 15 -15 79 -15 77 0 81 -1 115 -34 40 -39
43 -33 21 49 -8 30 -15 71 -15 91 0 70 -13 100 -63 156 l-51 55 -61 -5 c-33
-2 -97 -14 -141 -27 -68 -18 -91 -30 -137 -71 l-55 -49 -5 33 c-3 22 3 44 20
74 20 34 23 51 18 82 -5 32 -3 41 13 52 10 8 27 28 37 44 15 25 13 24 -14 -7
-18 -21 -39 -38 -46 -38 -16 0 -42 45 -61 105 -7 22 -13 32 -13 23z"/>
<path d="M1444 4273 c-33 -6 -66 -48 -74 -92 -4 -22 -5 -43 -2 -46 3 -3 52 -5
109 -5 l103 0 0 29 c0 79 -61 130 -136 114z"/>
<path d="M1449 3652 c-37 -4 -70 -43 -79 -91 -4 -22 -5 -43 -2 -46 3 -3 52 -5
110 -5 l105 0 -6 46 c-7 69 -56 105 -128 96z"/>
<path d="M5574 1996 c-35 -16 -64 -51 -64 -79 0 -32 28 -74 60 -87 47 -20 120
-8 147 25 45 52 22 117 -50 144 -36 14 -55 13 -93 -3z"/>
<path d="M4002 768 c-32 -35 -36 -70 -14 -120 23 -53 40 -67 86 -75 30 -5 40
-1 66 25 34 34 39 72 16 125 -27 65 -112 89 -154 45z"/>
<path d="M2833 6053 c-25 -5 -28 -16 -14 -59 6 -16 26 -82 46 -146 34 -110 38
-118 62 -118 89 0 145 145 93 239 -35 61 -117 98 -187 84z"/>
<path d="M4183 6050 c-96 -23 -150 -117 -123 -216 24 -84 118 -137 141 -78 17
46 90 287 87 289 -10 8 -79 12 -105 5z"/>
<path d="M554 5190 c-12 -5 -29 -19 -38 -32 -62 -88 63 -199 139 -124 77 77 0
197 -101 156z"/>
<path d="M6459 5185 c-81 -45 -46 -175 46 -175 50 0 95 44 95 94 0 70 -80 116
-141 81z"/>
<path d="M727 4334 c-4 -4 -7 -74 -7 -156 l0 -148 75 0 76 0 -3 153 -3 152
-65 3 c-36 2 -69 0 -73 -4z"/>
<path d="M6237 4333 c-4 -3 -7 -73 -7 -155 l0 -148 75 0 75 0 0 155 0 155 -68
0 c-38 0 -72 -3 -75 -7z"/>
<path d="M722 2648 l3 -153 70 0 70 0 3 153 3 152 -76 0 -76 0 3 -152z m108 2
l0 -120 -35 0 -35 0 0 120 0 120 35 0 35 0 0 -120z"/>
<path d="M6232 2648 l3 -153 73 -3 72 -3 0 156 0 155 -75 0 -76 0 3 -152z
m108 2 l0 -120 -35 0 -35 0 0 120 0 120 35 0 35 0 0 -120z"/>
<path d="M720 1925 l0 -155 75 0 75 0 0 155 0 155 -75 0 -75 0 0 -155z"/>
<path d="M6230 1925 l0 -155 75 0 75 0 0 155 0 155 -75 0 -75 0 0 -155z"/>
<path d="M720 1145 l0 -155 75 0 75 0 0 155 0 155 -75 0 -75 0 0 -155z m110 0
l0 -115 -35 0 -35 0 0 115 0 115 35 0 35 0 0 -115z"/>
<path d="M6230 1145 l0 -155 75 0 75 0 0 155 0 155 -75 0 -75 0 0 -155z m110
0 l0 -115 -35 0 -35 0 0 115 0 115 35 0 35 0 0 -115z"/>
<path d="M740 616 c0 -39 92 -105 148 -106 20 0 22 4 22 60 l0 60 -85 0 c-65
0 -85 -3 -85 -14z"/>
<path d="M6190 570 c0 -54 2 -60 20 -60 55 0 150 65 150 102 0 16 -10 18 -85
18 l-85 0 0 -60z"/>
<path d="M1352 485 c-18 -13 -50 -26 -72 -30 l-40 -7 0 -75 c0 -86 -3 -85 78
-9 36 34 92 119 92 141 0 11 -27 2 -58 -20z"/>
<path d="M5690 503 c1 -38 131 -193 161 -193 5 0 9 31 9 69 l0 69 -40 7 c-22
4 -56 18 -75 31 -36 24 -55 30 -55 17z"/>
</g>
</svg>
